<?xml version="1.0" encoding="UTF-8" standalone="no"?>
<!DOCTYPE svg PUBLIC "-//W3C//DTD SVG 1.1//EN" "http://www.w3.org/Graphics/SVG/1.1/DTD/svg11.dtd">
<svg version="1.1" xmlns="http://www.w3.org/2000/svg" xmlns:xlink="http://www.w3.org/1999/xlink" preserveAspectRatio="xMidYMid meet" viewBox="0 0 640 640" width="640" height="640"><defs><path d="M163.84 0C148.02 -0.04 135.16 12.75 135.11 28.57C135.11 28.62 135.11 28.68 135.11 28.73C135.11 74.18 135.11 437.82 135.11 483.27C135.07 499.09 147.86 511.96 163.68 512C163.73 512 163.79 512 163.84 512C195.07 512 444.93 512 476.16 512C491.98 512.04 504.85 499.25 504.89 483.43C504.89 483.38 504.89 483.32 504.89 483.27C504.89 437.82 504.89 74.18 504.89 28.73C504.93 12.91 492.14 0.04 476.32 0C476.27 0 476.21 0 476.16 0C476.16 0 195.07 0 163.84 0ZM277.33 391.11C285.19 391.11 291.56 397.48 291.56 405.33C291.56 413.19 285.19 419.56 277.33 419.56C275.91 419.56 268.8 419.56 256 419.56C256 432.36 256 439.47 256 440.89C256 448.74 249.63 455.11 241.78 455.11C233.92 455.11 227.56 448.74 227.56 440.89C227.56 439.47 227.56 432.36 227.56 419.56C214.76 419.56 207.64 419.56 206.22 419.56C198.37 419.56 192 413.19 192 405.33C192 397.48 198.37 391.11 206.22 391.11C207.64 391.11 214.76 391.11 227.56 391.11C227.56 378.31 227.56 371.2 227.56 369.78C227.56 361.92 233.92 355.56 241.78 355.56C249.63 355.56 256 361.92 256 369.78C256 371.2 256 378.31 256 391.11C267.38 391.11 274.49 391.11 277.33 391.11ZM348.44 405.33C348.44 377.84 370.73 355.56 398.22 355.56C425.71 355.56 448 377.84 448 405.33C447.97 432.81 425.7 455.08 398.22 455.11C370.73 455.11 348.44 432.82 348.44 405.33ZM476.44 298.38L163.7 298.38L163.7 85.48L476.44 85.48L476.44 298.38Z" id="d15cu0jiw"></path><path d="M398.22 384C386.44 384 376.89 393.55 376.89 405.33C376.89 417.12 386.44 426.67 398.22 426.67C410 426.67 419.56 417.12 419.56 405.33C419.56 393.55 410 384 398.22 384Z" id="ci6vPr645"></path></defs><g><g><g><use xlink:href="#d15cu0jiw" opacity="1" fill="#29a19c" fill-opacity="1"></use><g><use xlink:href="#d15cu0jiw" opacity="1" fill-opacity="0" stroke="#000000" stroke-width="1" stroke-opacity="0"></use></g></g><g><use xlink:href="#ci6vPr645" opacity="1" fill="#29a19c" fill-opacity="1"></use><g><use xlink:href="#ci6vPr645" opacity="1" fill-opacity="0" stroke="#000000" stroke-width="1" stroke-opacity="0"></use></g></g></g></g></svg>