<svg xmlns="http://www.w3.org/2000/svg" xmlns:xlink="http://www.w3.org/1999/xlink" xml:space="preserve" version="1.1" style="shape-rendering:geometricPrecision;text-rendering:geometricPrecision;image-rendering:optimizeQuality;" viewBox="0 0 333 416.25" x="0px" y="0px" fill-rule="evenodd" clip-rule="evenodd"><defs><style type="text/css">
   
    .fil0 {fill:#29a19c}
   
  </style></defs><g><path class="fil0" d="M111 8l111 0c15,0 27,13 27,27l0 263c0,15 -12,27 -27,27l-111 0c-15,0 -27,-12 -27,-27l0 -263c0,-14 12,-27 27,-27zm-14 54l139 0 0 210 -139 0 0 -210zm70 223c7,0 13,6 13,13 0,8 -6,14 -13,14 -8,0 -14,-6 -14,-14 0,-7 6,-13 14,-13zm-12 -249l24 0c4,0 4,7 0,7l-24 0c-5,0 -5,-7 0,-7z"/></g></svg>