<?xml version="1.0" encoding="UTF-8" standalone="no"?>
<!DOCTYPE svg PUBLIC "-//W3C//DTD SVG 1.1//EN" "http://www.w3.org/Graphics/SVG/1.1/DTD/svg11.dtd">
<svg version="1.1" xmlns="http://www.w3.org/2000/svg" xmlns:xlink="http://www.w3.org/1999/xlink" preserveAspectRatio="xMidYMid meet" viewBox="0 0 640 640" width="640" height="640"><defs><path d="M76 8L76 103.04L564 103.04L564 8L76 8ZM122.34 64.19C117.62 64.19 113.78 60.36 113.78 55.64C113.78 50.91 117.62 47.08 122.34 47.08C126.52 47.08 159.9 47.08 164.07 47.08C168.8 47.08 172.63 50.91 172.63 55.64C172.63 60.36 168.8 64.19 164.07 64.19C155.73 64.19 126.52 64.19 122.34 64.19ZM205.53 64.19C200.8 64.19 196.97 60.36 196.97 55.64C196.97 50.91 200.8 47.08 205.53 47.08C209.7 47.08 243.08 47.08 247.26 47.08C251.98 47.08 255.82 50.91 255.82 55.64C255.82 60.36 251.98 64.19 247.26 64.19C238.91 64.19 209.7 64.19 205.53 64.19ZM318.9 64.19C314.17 64.19 310.34 60.36 310.34 55.64C310.34 50.91 314.17 47.08 318.9 47.08C337.68 47.08 487.9 47.08 506.68 47.08C511.4 47.08 515.24 50.91 515.24 55.64C515.24 60.36 511.4 64.19 506.68 64.19C469.12 64.19 337.68 64.19 318.9 64.19Z" id="amA4259x"></path><path d="M452.05 367.37L452.05 241.42L187.95 241.42L187.95 367.37L452.05 367.37ZM410.72 294.51C416.18 294.51 420.61 298.94 420.61 304.39C420.61 309.85 416.18 314.27 410.72 314.27C408.71 314.27 392.64 314.27 390.63 314.27C385.17 314.27 380.74 309.85 380.74 304.39C380.74 298.94 385.17 294.51 390.63 294.51C394.65 294.51 408.71 294.51 410.72 294.51ZM343.78 294.51C349.24 294.51 353.67 298.94 353.67 304.39C353.67 309.85 349.24 314.27 343.78 314.27C341.77 314.27 325.69 314.27 323.68 314.27C318.21 314.27 313.78 309.85 313.78 304.39C313.78 298.94 318.22 294.51 323.68 294.51C327.7 294.51 341.77 294.51 343.78 294.51ZM221.66 275.04C223.46 269.79 229.6 267.49 234.41 270.27C238.66 272.72 272.64 292.35 276.89 294.81C279.62 296.38 281.3 299.29 281.3 302.43C281.3 302.83 281.3 306.04 281.3 306.44C281.3 309.59 279.62 312.5 276.89 314.07C272.61 316.5 238.36 336 234.08 338.43C229.36 341.11 223.38 338.85 221.62 333.73C220.31 329.94 221.8 325.74 225.2 323.61C227.25 322.33 237.45 315.95 255.82 304.45L225.32 285.36C221.99 281.06 220.77 277.62 221.66 275.04Z" id="cjIHPV0rK"></path><path d="M76 504L564 504L564 120.14L76 120.14L76 504ZM460.61 384.48C432.49 384.48 207.51 384.48 179.39 384.48C174.66 384.48 170.83 380.65 170.83 375.92C170.83 361.62 170.83 247.17 170.83 232.86C170.83 228.14 174.66 224.31 179.39 224.31C207.51 224.31 432.49 224.31 460.61 224.31C465.34 224.31 469.17 228.14 469.17 232.86C469.17 242.4 469.17 290.09 469.17 375.92C466.62 381.63 463.76 384.48 460.61 384.48Z" id="d3EaqA3GAX"></path></defs><g><g><g><use xlink:href="#amA4259x" opacity="1" fill="#29a19c" fill-opacity="1"></use><g><use xlink:href="#amA4259x" opacity="1" fill-opacity="0" stroke="#000000" stroke-width="1" stroke-opacity="0"></use></g></g><g><use xlink:href="#cjIHPV0rK" opacity="1" fill="#29a19c" fill-opacity="1"></use><g><use xlink:href="#cjIHPV0rK" opacity="1" fill-opacity="0" stroke="#000000" stroke-width="1" stroke-opacity="0"></use></g></g><g><use xlink:href="#d3EaqA3GAX" opacity="1" fill="#29a19c" fill-opacity="1"></use><g><use xlink:href="#d3EaqA3GAX" opacity="1" fill-opacity="0" stroke="#000000" stroke-width="1" stroke-opacity="0"></use></g></g></g></g></svg>