<?xml version="1.0" encoding="UTF-8" standalone="no"?>
<!DOCTYPE svg PUBLIC "-//W3C//DTD SVG 1.1//EN" "http://www.w3.org/Graphics/SVG/1.1/DTD/svg11.dtd">
<svg version="1.1" xmlns="http://www.w3.org/2000/svg" xmlns:xlink="http://www.w3.org/1999/xlink" preserveAspectRatio="xMidYMid meet" viewBox="0 0 640 640" width="640" height="640"><defs><path d="M575.23 242.18C516.65 242.18 484.1 242.18 477.59 242.18C476.56 224.17 474.14 206.26 470.37 188.62C466.66 171 461.52 153.7 455.01 136.91C464.1 136.91 536.81 136.91 545.89 136.91C546.72 136.8 547.52 137.26 547.84 138.04C559.15 160.47 567.1 184.45 571.44 209.2C573.19 219.03 574.39 228.94 575.03 238.9C575 239.31 575 239.72 575.03 240.13C575.03 240.26 575.03 240.95 575.03 242.18L575.23 242.18Z" id="a5QAC9NrZp"></path><path d="M574.77 276.48C573.05 301.17 567.59 325.46 558.59 348.52C555.88 355.58 552.6 362.44 549.63 369.41C549.42 370.06 548.77 370.46 548.1 370.38C542.14 370.38 512.34 370.38 458.7 370.38C458.02 370.38 457.65 370.38 457.57 370.38C463.62 354.1 468.33 337.35 471.65 320.31C474.97 303.28 476.97 286.03 477.64 268.7C484.15 268.7 516.68 268.7 575.23 268.7L575.23 271.36C575.03 273.61 574.87 275.32 574.77 276.48Z" id="b1ArNkHWbS"></path><path d="M356.76 1.02C372.74 3.37 388.46 7.21 403.71 12.49C426.16 20.26 447.39 31.15 466.79 44.85C491.72 62.12 513.14 83.96 529.92 109.21C529.97 109.3 530.25 109.74 530.74 110.54L529.56 110.54C478.2 110.54 449.66 110.54 443.96 110.54C443.18 110.6 442.48 110.1 442.27 109.36C432.95 90.9 421.8 73.42 408.99 57.19C394.99 39.76 378.74 24.26 360.65 11.11C357.02 8.4 353.23 5.99 349.54 3.23C349.47 3.18 349.13 2.94 348.52 2.51L349.7 1.64L349.08 0L350.11 0C354.1 0.61 356.32 0.96 356.76 1.02Z" id="f8swyllsF"></path><path d="M422.4 136.96C423.36 136.82 424.28 137.41 424.55 138.34C433.82 159.66 440.5 182 444.47 204.9C446.52 216.76 447.91 228.73 448.61 240.74C448.61 240.74 448.61 241.1 448.61 241.36C440.7 241.36 401.1 241.36 329.83 241.36L329.83 136.96C385.37 136.96 416.23 136.96 422.4 136.96Z" id="a28oM5ZqMy"></path><path d="M329.06 269.26C400.42 269.26 440.07 269.26 448 269.26C448 271.46 448 273.61 447.69 275.76C446.48 294.78 443.46 313.64 438.68 332.08C435.39 344.73 431.26 357.15 426.34 369.25C426.17 369.97 425.48 370.43 424.76 370.33C418.38 370.33 386.48 370.33 329.06 370.33L329.06 269.26Z" id="a15pOxX77c"></path><path d="M187.65 228.81C188.77 217.79 190.48 206.83 192.77 195.99C196.85 176.3 202.95 157.08 211 138.65C211.21 138 211.85 137.59 212.53 137.68C218.56 137.68 248.68 137.68 302.9 137.68L302.9 242.12L186.57 242.12C186.98 236.19 187.34 231.75 187.65 228.81Z" id="e6YVxPtsZK"></path><path d="M210.12 370.38C209.17 370.49 208.27 369.88 208.03 368.95C200.12 349.76 194.35 329.75 190.82 309.3C188.56 296.26 187.16 283.09 186.62 269.88C186.62 269.88 186.62 269.52 186.62 269.26C194.37 269.26 233.11 269.26 302.85 269.26L302.85 370.38C247.22 370.38 216.31 370.38 210.12 370.38Z" id="auclfHfv"></path><path d="M179.81 136.96C178.59 140.34 177.36 143.51 176.23 146.69C165.48 176.83 159.07 208.34 157.18 240.28C157.3 240.84 156.94 241.38 156.39 241.49C156.21 241.53 156.03 241.52 155.85 241.46C146.74 241.46 73.88 241.46 64.77 241.46C64.77 238.75 65.13 236.34 65.33 233.52C67.04 214.56 70.78 195.83 76.49 177.66C80.76 164.15 86.03 150.97 92.26 138.24C92.5 137.52 93.2 137.05 93.95 137.11C99.68 137.11 128.3 137.11 179.81 137.11C179.81 137.03 179.81 136.98 179.81 136.96Z" id="fkguolHPz"></path><path d="M92.36 370.38C91.4 370.5 90.47 369.93 90.16 369C79.7 347.02 72.34 323.68 68.3 299.67C66.63 289.76 65.47 279.76 64.82 269.72C64.82 269.36 64.82 269.06 64.82 268.6C74.04 268.6 147.76 268.6 156.98 268.6C158.32 303.37 165.11 337.71 177.1 370.38C177.1 370.38 100.84 370.38 92.36 370.38Z" id="bj0ayY3zi"></path><path d="M352.56 507.9C370.9 495.16 387.6 480.2 402.28 463.36C419.07 443.95 433.27 422.43 444.52 399.36C444.98 397.89 446.49 397 448 397.31C456.58 397.31 525.18 397.31 533.76 397.31C532.43 399.36 531.25 401.2 530.02 403.05C521.89 414.88 512.81 426.05 502.89 436.43C489.13 450.81 473.65 463.45 456.81 474.06C439.79 484.96 421.51 493.77 402.38 500.28C386.82 505.61 370.77 509.39 354.46 511.54C354.19 511.58 352.06 511.91 351.8 511.95C350.57 512.08 349.35 511.63 348.52 510.72C349.33 510.16 352.16 508.19 352.56 507.9Z" id="b7Wt6jpAJ"></path><path d="M286 510.98C285.14 511.07 284.26 511.07 283.39 510.98C235.87 504.35 191.24 484.25 154.78 453.07C136.03 437.16 119.86 418.44 106.85 397.57C106.82 397.5 106.65 397.18 106.34 396.6C154.66 396.6 181.51 396.6 186.88 396.6C187.89 396.49 188.84 397.08 189.18 398.03C198.25 416.51 209.19 434.01 221.85 450.25C232.92 464.29 245.2 477.33 258.56 489.22C267 496.76 275.93 503.74 285.29 510.11C285.32 510.13 285.49 510.25 285.8 510.46L285.8 510.98C285.91 510.98 285.98 510.98 286 510.98Z" id="a1mpI8QXlL"></path><path d="M284.57 0.92L285.8 2.3C284.14 3.44 283.22 4.07 283.03 4.2C265.2 16.85 248.87 31.48 234.34 47.82C217.71 66.09 203.67 86.55 192.61 108.65C192.29 109.53 191.4 110.08 190.46 109.98C182.32 109.98 117.2 109.98 109.06 109.98C152.37 48.64 210.48 11.83 284.42 0.56C284.44 0.61 284.49 0.73 284.57 0.92Z" id="ae765l7c3"></path><path d="M329.11 489.11C329.11 483 329.11 452.45 329.11 397.47L413.34 397.47C380.32 442.74 352.24 473.29 329.11 489.11Z" id="gKokCtnUE"></path><path d="M302.9 397.41C302.9 451.33 302.9 481.28 302.9 487.27C269.25 464.1 241.56 433.31 222.05 397.41C222.05 397.41 249 397.41 302.9 397.41Z" id="e3ea5ymvgo"></path><path d="M329.78 109.82C329.78 58.55 329.78 30.07 329.78 24.37C362.93 46.27 390.6 75.51 410.62 109.82C399.84 109.82 372.9 109.82 329.78 109.82Z" id="c45QGYnlrf"></path><path d="M302.9 110.59C256.33 110.59 230.45 110.59 225.28 110.59C244.25 77.03 270.83 48.39 302.9 26.98C302.9 26.98 302.9 54.85 302.9 110.59Z" id="h2P0yzZNfn"></path></defs><g><g><g><use xlink:href="#a5QAC9NrZp" opacity="1" fill="#29a19c" fill-opacity="1"></use><g><use xlink:href="#a5QAC9NrZp" opacity="1" fill-opacity="0" stroke="#000000" stroke-width="1" stroke-opacity="0"></use></g></g><g><use xlink:href="#b1ArNkHWbS" opacity="1" fill="#29a19c" fill-opacity="1"></use><g><use xlink:href="#b1ArNkHWbS" opacity="1" fill-opacity="0" stroke="#000000" stroke-width="1" stroke-opacity="0"></use></g></g><g><use xlink:href="#f8swyllsF" opacity="1" fill="#29a19c" fill-opacity="1"></use><g><use xlink:href="#f8swyllsF" opacity="1" fill-opacity="0" stroke="#000000" stroke-width="1" stroke-opacity="0"></use></g></g><g><use xlink:href="#a28oM5ZqMy" opacity="1" fill="#29a19c" fill-opacity="1"></use><g><use xlink:href="#a28oM5ZqMy" opacity="1" fill-opacity="0" stroke="#000000" stroke-width="1" stroke-opacity="0"></use></g></g><g><use xlink:href="#a15pOxX77c" opacity="1" fill="#29a19c" fill-opacity="1"></use><g><use xlink:href="#a15pOxX77c" opacity="1" fill-opacity="0" stroke="#000000" stroke-width="1" stroke-opacity="0"></use></g></g><g><use xlink:href="#e6YVxPtsZK" opacity="1" fill="#29a19c" fill-opacity="1"></use><g><use xlink:href="#e6YVxPtsZK" opacity="1" fill-opacity="0" stroke="#000000" stroke-width="1" stroke-opacity="0"></use></g></g><g><use xlink:href="#auclfHfv" opacity="1" fill="#29a19c" fill-opacity="1"></use><g><use xlink:href="#auclfHfv" opacity="1" fill-opacity="0" stroke="#000000" stroke-width="1" stroke-opacity="0"></use></g></g><g><use xlink:href="#fkguolHPz" opacity="1" fill="#29a19c" fill-opacity="1"></use><g><use xlink:href="#fkguolHPz" opacity="1" fill-opacity="0" stroke="#000000" stroke-width="1" stroke-opacity="0"></use></g></g><g><use xlink:href="#bj0ayY3zi" opacity="1" fill="#29a19c" fill-opacity="1"></use><g><use xlink:href="#bj0ayY3zi" opacity="1" fill-opacity="0" stroke="#000000" stroke-width="1" stroke-opacity="0"></use></g></g><g><use xlink:href="#b7Wt6jpAJ" opacity="1" fill="#29a19c" fill-opacity="1"></use><g><use xlink:href="#b7Wt6jpAJ" opacity="1" fill-opacity="0" stroke="#000000" stroke-width="1" stroke-opacity="0"></use></g></g><g><use xlink:href="#a1mpI8QXlL" opacity="1" fill="#29a19c" fill-opacity="1"></use><g><use xlink:href="#a1mpI8QXlL" opacity="1" fill-opacity="0" stroke="#000000" stroke-width="1" stroke-opacity="0"></use></g></g><g><use xlink:href="#ae765l7c3" opacity="1" fill="#29a19c" fill-opacity="1"></use><g><use xlink:href="#ae765l7c3" opacity="1" fill-opacity="0" stroke="#000000" stroke-width="1" stroke-opacity="0"></use></g></g><g><use xlink:href="#gKokCtnUE" opacity="1" fill="#29a19c" fill-opacity="1"></use><g><use xlink:href="#gKokCtnUE" opacity="1" fill-opacity="0" stroke="#000000" stroke-width="1" stroke-opacity="0"></use></g></g><g><use xlink:href="#e3ea5ymvgo" opacity="1" fill="#29a19c" fill-opacity="1"></use><g><use xlink:href="#e3ea5ymvgo" opacity="1" fill-opacity="0" stroke="#000000" stroke-width="1" stroke-opacity="0"></use></g></g><g><use xlink:href="#c45QGYnlrf" opacity="1" fill="#29a19c" fill-opacity="1"></use><g><use xlink:href="#c45QGYnlrf" opacity="1" fill-opacity="0" stroke="#000000" stroke-width="1" stroke-opacity="0"></use></g></g><g><use xlink:href="#h2P0yzZNfn" opacity="1" fill="#29a19c" fill-opacity="1"></use><g><use xlink:href="#h2P0yzZNfn" opacity="1" fill-opacity="0" stroke="#000000" stroke-width="1" stroke-opacity="0"></use></g></g></g></g></svg>